<mxfile host="app.diagrams.net" modified="2024-06-08T08:12:27.910Z" agent="Mozilla/5.0 (Windows NT 10.0; Win64; x64) AppleWebKit/537.36 (KHTML, like Gecko) Chrome/124.0.0.0 Whale/3.26.244.21 Safari/537.36" version="24.5.2" etag="4AvkANf4kynJoXms1XmO" type="github">
  <diagram name="페이지-1" id="woZWL9phmd08YaD6PnZ5">
    <mxGraphModel>
      <root>
        <mxCell id="0" />
        <mxCell id="1" parent="0" />
      </root>
    </mxGraphModel>
  </diagram>
</mxfile>
